# xmcd
#
# Track frame offsets: 
#        150
#        11657
#        25817
#        40470
#        50777
#        64252
#        75187
#        84555
#        102285
#        110272
#        123505
#        136902
#        151515
#        159390
#        168485
#        180122
#        192515
#        205525
#        217402
#        229922
#
# Disc length: 3207 seconds
#
# Revision: 3
# Processed by: cddbd v1.5.2PL0 Copyright (c) Steve Scherf et al.
# Submitted via: ExactAudioCopyFreeDBPlugin 1.0
#
DISCID=050c8514
DTITLE=Johnny Cash - Classic Cash Hall Of Fame Series
DYEAR=1988
DGENRE=Country
TTITLE0=Get Rhythm
TTITLE1=Tennessee Flat Top Box
TTITLE2=Long Black Veil
TTITLE3=A Thing Called Love
TTITLE4=I Still Miss Someone
TTITLE5=Cry, Cry, Cry
TTITLE6=Blue Train
TTITLE7=Sunday Morning Coming Down
TTITLE8=Five Feet High And Rising
TTITLE9=Peace In The Valley
TTITLE10=Don't Take Your Guns To Town
TTITLE11=Home Of The Blues
TTITLE12=Guess Things Happen That Way
TTITLE13=I Got Stripes
TTITLE14=I Walk The Line
TTITLE15=Ring Of Fire
TTITLE16=Ballad Of Ira Hayes
TTITLE17=The Ways Of A Woman In Love
TTITLE18=Folsum Prison Blues
TTITLE19=Supper Time
EXTD=
EXTT0=
EXTT1=
EXTT2=
EXTT3=
EXTT4=
EXTT5=
EXTT6=
EXTT7=
EXTT8=
EXTT9=
EXTT10=
EXTT11=
EXTT12=
EXTT13=
EXTT14=
EXTT15=
EXTT16=
EXTT17=
EXTT18=
EXTT19=
PLAYORDER=
